<svg xmlns="http://www.w3.org/2000/svg" width="38" height="23" viewBox="0 0 38 23" fill="none">
<path d="M0.71875 12.625C0.71875 11.5521 0.979167 10.5781 1.5 9.70312C2.03125 8.82812 2.73958 8.13021 3.625 7.60938C4.51042 7.07812 5.48958 6.8125 6.5625 6.8125H15.5938V23H12.2969V10.1094H6.5625C5.86458 10.1094 5.26562 10.3594 4.76562 10.8594C4.26562 11.349 4.01562 11.9479 4.01562 12.6562V17.125C4.01562 17.8333 4.26562 18.4427 4.76562 18.9531C5.26562 19.4531 5.86458 19.7031 6.5625 19.7031H10.4219V23H6.5625C5.48958 23 4.51042 22.7396 3.625 22.2188C2.73958 21.6875 2.03125 20.9792 1.5 20.0938C0.979167 19.2083 0.71875 18.2292 0.71875 17.1562V12.625ZM19.6562 0.78125H22.9531V9.79688H34.4688V0.78125H37.75V23H34.4688V13.0781H22.9531V23H19.6562V0.78125Z" fill="#175BED"/>
</svg>